# xmcd
#
# Track frame offsets: 
#        150
#        13950
#        34224
#        49956
#        68124
#        82197
#        99214
#        121900
#
# Disc length: 1811 seconds
#
# Revision: 0
# Processed by: cddbd v1.5.1PL0 Copyright (c) Steve Scherf et al.
# Submitted via: ExactAudioCopy v0.95b2
#
DISCID=68071108
DTITLE=Various Artist - Ultimate Karaoke Men Of Country
DYEAR=1900
DGENRE=Karaoke
TTITLE0=Karaoke Men Of Country-01-I Wanna Talk About Me
TTITLE1=Karaoke Men Of Country-02-Only In America
TTITLE2=Karaoke Men Of Country-03-My Next 30 Years
TTITLE3=Karaoke Men Of Country-04-Drive (For Daddy Jean)
TTITLE4=Karaoke Men Of Country-05-Wrapped Around
TTITLE5=Karaoke Men Of Country-06-Where The Stars And Stripes And Eagl
TTITLE5=e Fly
TTITLE6=Karaoke Men Of Country-07-Modern Day Bonnie And Clyde
TTITLE7=Karaoke Men Of Country-08-Don't Happen Twice
EXTD=
EXTT0=
EXTT1=
EXTT2=
EXTT3=
EXTT4=
EXTT5=
EXTT6=
EXTT7=
PLAYORDER=
